HIERARCHY
ROOT tri_prism_large
{
	OFFSET 0.000000 0.000000 0.000000
	CHANNELS 6 Xposition Yposition Zposition Yrotation Xrotation Zrotation
	End Site
	{
		OFFSET 0.000000 0.000000 0.000000
	}
}
MOTION
Frames: 180
Frame Time: 0.008333334
-2.982869 1.190146 4.395111 -143.039200 -1.730927 -1.018127 
-2.983177 1.190149 4.395262 -143.084900 -1.711517 -0.990204 
-2.982691 1.190123 4.395404 -143.016700 -1.717163 -1.037781 
-2.983006 1.190037 4.395326 -143.012600 -1.733826 -1.065247 
-2.983151 1.189771 4.395873 -143.023600 -1.774567 -1.029083 
-2.983552 1.189960 4.396334 -143.058900 -1.768433 -1.036133 
-2.984288 1.189657 4.396698 -143.032400 -1.726135 -1.037628 
-2.984268 1.189592 4.397187 -143.045500 -1.777863 -1.089050 
-2.984758 1.189510 4.397398 -143.086300 -1.775482 -1.082581 
-2.984968 1.189469 4.397477 -143.090600 -1.762543 -1.081329 
-2.985616 1.189358 4.397628 -143.097700 -1.755890 -1.026123 
-2.985518 1.189603 4.397079 -143.056300 -1.752167 -1.091949 
-2.985759 1.189424 4.397048 -143.072100 -1.750793 -1.052094 
-2.985537 1.189590 4.396916 -143.049100 -1.738800 -1.094818 
-2.985498 1.189652 4.396823 -143.062700 -1.734680 -1.090515 
-2.985964 1.189502 4.397290 -143.087400 -1.717743 -1.044495 
-2.985368 1.189389 4.397363 -143.105900 -1.758362 -1.056946 
-2.985007 1.189304 4.397441 -143.095400 -1.767212 -1.070587 
-2.984854 1.189510 4.397803 -143.058000 -1.726776 -1.015594 
-2.984545 1.189350 4.398067 -143.025700 -1.733521 -1.015961 
-2.984512 1.189419 4.397754 -143.066800 -1.743225 -1.002350 
-2.984347 1.189375 4.397729 -143.068900 -1.724152 -1.052307 
-2.984416 1.189435 4.397895 -143.045400 -1.735077 -0.994690 
-2.984231 1.189564 4.397676 -143.037200 -1.738037 -1.055511 
-2.984311 1.189298 4.397901 -143.036400 -1.780304 -1.087860 
-2.984817 1.189191 4.398388 -143.062500 -1.695251 -0.996826 
-2.984728 1.189344 4.397871 -143.047800 -1.761871 -1.085999 
-2.985332 1.189157 4.397887 -143.092400 -1.765076 -1.116577 
-2.985691 1.188809 4.398296 -143.082600 -1.693054 -1.003235 
-2.985622 1.189101 4.398133 -143.084900 -1.741547 -1.001251 
-2.985404 1.189274 4.397885 -143.064200 -1.737061 -1.065979 
-2.985425 1.189233 4.397977 -143.048400 -1.723083 -1.071991 
-2.985321 1.189199 4.398266 -143.063600 -1.734161 -1.045990 
-2.984854 1.189073 4.398287 -143.007700 -1.733643 -1.060852 
-2.985403 1.189056 4.398429 -143.031100 -1.732422 -1.050598 
-2.985044 1.189065 4.398464 -142.995500 -1.694794 -1.044556 
-2.985218 1.188967 4.398647 -143.037100 -1.706482 -1.048370 
-2.984843 1.188852 4.398513 -143.031700 -1.735138 -1.074463 
-2.985368 1.189011 4.398737 -143.047100 -1.706146 -1.046692 
-2.985353 1.188949 4.398669 -143.045800 -1.719055 -1.044952 
-2.985604 1.189072 4.398511 -143.037000 -1.719971 -1.085297 
-2.985665 1.189205 4.398343 -143.021200 -1.731293 -1.082245 
-2.985462 1.189169 4.398189 -143.062300 -1.760620 -1.104950 
-2.985843 1.189117 4.398337 -143.040900 -1.744690 -1.078888 
-2.986155 1.188950 4.398334 -143.098000 -1.751953 -1.079132 
-2.986377 1.188824 4.398633 -143.078900 -1.738800 -1.039276 
-2.986025 1.188702 4.398759 -142.993500 -1.754181 -1.054749 
-2.986993 1.188545 4.399004 -143.029000 -1.742249 -1.066986 
-2.987068 1.188908 4.398849 -142.942800 -1.738281 -1.139252 
-2.986963 1.188562 4.399969 -143.009600 -1.714264 -1.122314 
-2.987828 1.188192 4.399983 -142.954700 -1.762970 -1.075378 
-2.987335 1.188381 4.399891 -142.939400 -1.750092 -1.141174 
-2.987175 1.188212 4.400311 -143.014800 -1.705292 -1.071075 
-2.987386 1.188604 4.399336 -142.952300 -1.748505 -1.130585 
-2.987705 1.188409 4.399544 -142.978300 -1.762909 -1.069855 
-2.987405 1.188594 4.399260 -143.025900 -1.748535 -1.048584 
-2.987488 1.188499 4.399245 -143.011500 -1.763397 -1.045288 
-2.987585 1.188568 4.399208 -143.007500 -1.738953 -1.041382 
-2.987390 1.188418 4.399080 -142.993100 -1.750488 -1.040649 
-2.987540 1.188664 4.399692 -142.989100 -1.755829 -1.066589 
-2.987781 1.188454 4.399514 -143.008600 -1.780304 -1.097290 
-2.987690 1.188385 4.400068 -143.046900 -1.764862 -1.068146 
-2.987693 1.188616 4.399792 -143.021600 -1.746857 -1.095154 
-2.987419 1.188553 4.399428 -142.988600 -1.756561 -1.065063 
-2.987319 1.188546 4.399459 -142.999700 -1.726593 -1.069885 
-2.987366 1.188490 4.399486 -142.998300 -1.747864 -1.064697 
-2.987367 1.188432 4.399600 -142.991000 -1.766632 -1.018402 
-2.987217 1.188325 4.399678 -142.989000 -1.727325 -1.053253 
-2.986697 1.188294 4.399907 -143.035000 -1.723480 -1.064911 
-2.987189 1.188241 4.399917 -142.999000 -1.742645 -1.069031 
-2.986856 1.188354 4.400020 -143.048300 -1.748871 -1.099457 
-2.986897 1.188317 4.400074 -143.042500 -1.697021 -1.040131 
-2.987034 1.188246 4.399903 -143.038100 -1.743835 -1.028809 
-2.987265 1.188515 4.399638 -143.016600 -1.781311 -1.038300 
-2.987473 1.188467 4.399460 -142.987500 -1.706451 -1.061157 
-2.987436 1.188576 4.399930 -143.022400 -1.755798 -1.073578 
-2.987567 1.188321 4.399514 -143.021900 -1.742737 -1.049072 
-2.987808 1.188294 4.399667 -143.005600 -1.792633 -1.060303 
-2.987196 1.188462 4.400003 -143.042300 -1.719940 -1.067993 
-2.987475 1.188442 4.399654 -142.962600 -1.758270 -1.042206 
-2.986737 1.188524 4.399824 -143.018700 -1.768951 -1.095367 
-2.986943 1.188249 4.399701 -143.020000 -1.762787 -1.037964 
-2.986500 1.188341 4.399871 -143.022400 -1.724243 -1.062897 
-2.986447 1.188336 4.399999 -143.036100 -1.734497 -1.039948 
-2.986718 1.188256 4.399806 -143.017200 -1.675903 -1.034790 
-2.986602 1.188313 4.399749 -143.026800 -1.706116 -1.071838 
-2.986318 1.188244 4.400039 -143.044800 -1.712097 -1.070587 
-2.987195 1.188126 4.399725 -143.027900 -1.708923 -1.035492 
-2.987624 1.188184 4.399652 -143.014000 -1.748840 -1.008240 
-2.987554 1.187995 4.399746 -143.018000 -1.742279 -1.029816 
-2.988020 1.187933 4.399841 -143.000500 -1.714600 -1.025055 
-2.987898 1.188037 4.399871 -142.983600 -1.799011 -1.075256 
-2.987411 1.188011 4.400113 -143.038500 -1.745728 -1.065186 
-2.987524 1.187896 4.399692 -142.985900 -1.746826 -1.022522 
-2.987606 1.188015 4.399994 -142.983700 -1.763428 -1.031891 
-2.987214 1.187887 4.400042 -142.992800 -1.741241 -1.047455 
-2.987217 1.187582 4.400196 -143.008300 -1.718140 -0.964294 
-2.987233 1.187626 4.400326 -142.996900 -1.700104 -1.007721 
-2.987370 1.187653 4.400001 -142.996500 -1.770813 -1.014038 
-2.987903 1.187906 4.400146 -142.998600 -1.732849 -0.993683 
-2.987840 1.188190 4.399706 -143.000900 -1.757904 -1.062775 
-2.988165 1.187783 4.399562 -143.012500 -1.723480 -1.030518 
-2.988474 1.187728 4.399725 -142.974500 -1.698730 -0.981018 
-2.988600 1.187963 4.399514 -142.985500 -1.734955 -1.059265 
-2.988103 1.187788 4.399586 -143.000000 -1.746735 -0.987549 
-2.988362 1.187988 4.399400 -142.966900 -1.776978 -0.957855 
-2.988353 1.187796 4.399412 -143.008800 -1.717194 -1.020477 
-2.988078 1.187552 4.399863 -143.004400 -1.669342 -0.945374 
-2.987971 1.187766 4.399550 -143.043000 -1.751587 -1.019196 
-2.988046 1.187877 4.399577 -143.026800 -1.739044 -0.991821 
-2.987639 1.187921 4.399528 -143.032800 -1.739716 -1.001007 
-2.987691 1.188096 4.399374 -143.019700 -1.772705 -1.043152 
-2.987768 1.188099 4.399277 -143.001900 -1.782043 -1.024048 
-2.987706 1.188353 4.398850 -142.993600 -1.726929 -1.021118 
-2.987466 1.188307 4.398741 -143.023000 -1.730225 -1.017975 
-2.987146 1.188352 4.398619 -143.022200 -1.714203 -1.006683 
-2.986538 1.188190 4.398621 -143.014900 -1.725067 -0.996765 
-2.986006 1.188244 4.398536 -143.014300 -1.742493 -1.013611 
-2.985471 1.188211 4.398642 -143.022000 -1.703796 -0.991150 
-2.985106 1.188333 4.399005 -142.999800 -1.702179 -0.990723 
-2.984834 1.188625 4.398658 -142.954500 -1.700653 -1.052094 
-2.984624 1.188459 4.399200 -143.003200 -1.700287 -1.007782 
-2.984534 1.188241 4.399226 -143.019100 -1.681061 -0.997315 
-2.984863 1.188282 4.399164 -143.018900 -1.722778 -1.016083 
-2.984914 1.188369 4.398983 -143.019200 -1.714874 -1.009583 
-2.985416 1.188334 4.398798 -143.019000 -1.731262 -1.018066 
-2.985649 1.188261 4.398862 -143.002200 -1.670105 -0.993744 
-2.985630 1.188230 4.398619 -143.019600 -1.710449 -0.987885 
-2.986182 1.188121 4.398369 -142.989500 -1.693817 -1.000122 
-2.986328 1.188359 4.398322 -142.997700 -1.709503 -0.995026 
-2.986233 1.188437 4.398834 -143.015000 -1.731537 -1.018127 
-2.986151 1.188172 4.398959 -142.986800 -1.736267 -0.973724 
-2.986395 1.188317 4.399019 -143.018200 -1.729553 -1.005859 
-2.986473 1.188097 4.398778 -143.026500 -1.718109 -1.015991 
-2.986177 1.187942 4.399162 -143.024000 -1.706696 -0.973023 
-2.986053 1.188137 4.399035 -143.026200 -1.706879 -1.010712 
-2.986138 1.188187 4.399131 -143.002800 -1.702118 -1.000702 
-2.986277 1.188205 4.399053 -143.028300 -1.719147 -1.027863 
-2.986279 1.188124 4.399021 -143.031200 -1.735718 -1.029968 
-2.986236 1.187848 4.398977 -143.042100 -1.690735 -0.951843 
-2.986507 1.188505 4.399184 -142.953500 -1.698090 -1.040283 
-2.986499 1.188150 4.399224 -142.971700 -1.703278 -1.036072 
-2.986401 1.188283 4.399236 -142.975900 -1.734100 -1.012299 
-2.986501 1.188265 4.399457 -142.985700 -1.627197 -1.024689 
-2.986482 1.188419 4.399277 -142.951200 -1.674408 -1.062683 
-2.986041 1.188178 4.399283 -143.012600 -1.669617 -1.041382 
-2.985747 1.188343 4.399324 -143.009800 -1.671600 -1.007111 
-2.985456 1.188160 4.399306 -143.028000 -1.671204 -1.007843 
-2.985564 1.188254 4.399397 -143.019500 -1.662048 -1.017426 
-2.985406 1.188257 4.399512 -143.008200 -1.669128 -0.999146 
-2.985274 1.188329 4.399340 -142.986100 -1.613312 -0.995361 
-2.985579 1.188167 4.399139 -143.014800 -1.707672 -1.006622 
-2.985812 1.188509 4.399609 -143.020400 -1.698639 -0.975250 
-2.985543 1.188025 4.399127 -143.000200 -1.655518 -0.940277 
-2.985897 1.188045 4.399181 -142.966000 -1.698853 -0.995972 
-2.985907 1.188220 4.399294 -142.947000 -1.675232 -1.010620 
-2.985927 1.188267 4.398917 -142.992700 -1.684570 -1.023224 
-2.985920 1.188523 4.398860 -142.929100 -1.695343 -1.080292 
-2.985816 1.188179 4.398941 -142.998600 -1.718170 -1.002899 
-2.985522 1.187804 4.399233 -143.008500 -1.687836 -0.913178 
-2.985502 1.188319 4.398632 -142.930800 -1.706421 -1.042999 
-2.985276 1.187656 4.399078 -142.985200 -1.687805 -0.945068 
-2.985480 1.187799 4.398986 -143.012700 -1.715759 -0.951721 
-2.985210 1.187914 4.399048 -143.025600 -1.712646 -0.958740 
-2.985460 1.187929 4.399178 -143.007100 -1.719177 -0.972626 
-2.985198 1.188027 4.398920 -142.998400 -1.664215 -0.961670 
-2.985132 1.188011 4.399135 -142.988600 -1.692688 -0.987183 
-2.985213 1.188137 4.399056 -143.006900 -1.691132 -0.982697 
-2.984689 1.188387 4.398673 -142.977600 -1.670685 -1.025787 
-2.985142 1.188088 4.399240 -143.022500 -1.720398 -1.007446 
-2.984964 1.187988 4.398933 -142.994800 -1.708649 -0.953796 
-2.984927 1.187419 4.399167 -142.962700 -1.668304 -0.903900 
-2.984637 1.188065 4.398889 -142.907600 -1.644196 -1.000946 
-2.984684 1.188275 4.398663 -142.955200 -1.694794 -1.022461 
-2.984891 1.188247 4.398962 -142.939200 -1.706268 -1.089050 
-2.985114 1.188239 4.398899 -142.936300 -1.694122 -1.102600 
-2.984993 1.188468 4.398894 -142.960400 -1.702118 -1.091492 
-2.985190 1.187916 4.399131 -143.023500 -1.731812 -1.009918 
-2.984987 1.188100 4.399134 -143.014400 -1.714417 -0.995972 
-2.985896 1.187926 4.398832 -143.043100 -1.661987 -0.978058 
